<?xml version="1.0" standalone="no"?>
<!DOCTYPE svg PUBLIC "-//W3C//DTD SVG 20010904//EN"
 "http://www.w3.org/TR/2001/REC-SVG-20010904/DTD/svg10.dtd">
<svg version="1.0" xmlns="http://www.w3.org/2000/svg"
 width="1056.000000pt" height="1056.000000pt" viewBox="0 0 1056.000000 1056.000000"
 preserveAspectRatio="xMidYMid meet">
<metadata>
Created by potrace 1.11, written by Peter Selinger 2001-2013
</metadata>
<g transform="translate(0.000000,1056.000000) scale(0.100000,-0.100000)"
fill="#000000" stroke="none">
<path d="M3615 10486 c-2 -6 -20 -60 -40 -121 -43 -128 -46 -139 -46 -142 0
-2 -12 -35 -26 -75 -14 -40 -26 -77 -28 -83 -1 -5 -5 -17 -8 -25 -9 -24 -259
-784 -261 -795 -1 -5 -51 -156 -110 -335 -60 -178 -109 -329 -111 -335 -1 -5
-5 -17 -8 -25 -3 -8 -58 -175 -122 -370 -64 -195 -130 -393 -147 -440 -16 -47
-31 -92 -33 -100 -1 -8 -19 -64 -40 -125 -20 -60 -38 -114 -39 -120 -2 -5 -6
-17 -9 -25 -3 -8 -38 -114 -77 -235 -39 -121 -74 -227 -77 -235 -4 -8 -8 -19
-8 -25 -1 -5 -5 -17 -8 -25 -8 -21 -181 -543 -183 -555 -1 -5 -30 -93 -64
-195 -35 -102 -63 -189 -64 -195 -1 -5 -5 -16 -10 -23 -4 -7 -5 -16 -2 -20 4
-3 234 -6 512 -6 l505 -1 30 100 c17 55 44 141 59 190 24 75 47 155 56 188 1
4 3 9 4 12 1 3 3 8 4 13 1 4 10 34 21 67 10 33 19 65 21 70 10 46 136 451 143
458 9 9 115 12 130 3 5 -4 12 -2 15 3 3 5 21 6 39 2 18 -5 41 -6 52 -4 11 2
43 3 70 3 28 0 59 0 70 0 41 1 71 -1 90 -4 11 -1 34 0 52 5 18 4 49 3 68 -1
19 -4 37 -4 40 0 3 4 19 5 37 1 18 -4 52 -4 75 -1 23 4 46 4 52 1 5 -3 42 -4
83 -1 41 3 93 2 116 -1 23 -3 42 -2 42 2 0 4 16 3 35 -1 19 -4 37 -4 40 0 3 4
20 5 38 1 18 -5 41 -6 52 -4 11 2 43 3 70 3 28 0 59 0 70 0 41 1 71 -1 90 -4
11 -1 33 0 50 4 17 4 40 4 51 -1 21 -7 19 0 205 -573 27 -82 49 -155 49 -162
0 -8 4 -14 8 -14 5 0 9 -6 9 -12 0 -7 15 -58 34 -113 18 -55 34 -104 35 -110
5 -24 37 -111 44 -120 7 -9 19 -51 19 -68 0 -4 8 -21 16 -37 8 -16 15 -32 14
-35 0 -3 14 -49 32 -103 18 -53 34 -99 34 -102 7 -30 30 -101 40 -125 7 -16
27 -75 45 -130 17 -55 78 -244 136 -420 58 -176 107 -324 108 -330 2 -5 6 -17
9 -25 21 -57 110 -339 115 -364 27 -157 -29 -311 -159 -437 -87 -84 -179 -122
-319 -134 -41 -3 -104 -9 -140 -12 -36 -3 -70 -6 -76 -6 -8 0 -11 -101 -10
-366 l1 -365 335 1 c315 0 466 6 535 19 167 31 255 61 358 122 61 36 227 188
227 208 0 7 7 14 15 18 8 3 15 10 15 15 0 5 15 31 33 59 28 41 65 111 118 227
9 19 208 609 213 630 1 6 38 116 81 245 44 129 80 237 80 240 1 7 235 710 242
730 4 8 7 17 8 20 1 3 4 12 8 20 3 8 20 60 37 115 17 55 35 109 40 120 5 11
23 65 40 120 17 55 35 109 40 120 8 19 223 665 225 675 1 7 235 710 242 730 4
8 7 17 8 20 1 3 4 12 8 20 7 19 103 310 108 330 4 13 -58 15 -485 15 l-489 0
-8 -25 c-28 -92 -65 -222 -190 -658 -77 -271 -142 -501 -144 -510 -2 -9 -8
-30 -15 -47 -6 -16 -11 -32 -11 -35 1 -3 -4 -21 -9 -40 -6 -19 -16 -53 -22
-75 -6 -22 -13 -47 -16 -55 -8 -23 -10 -32 -16 -61 -3 -14 -12 -45 -21 -68 -8
-23 -15 -45 -15 -49 0 -4 -6 -25 -12 -47 -6 -22 -13 -44 -14 -50 -2 -5 -10
-37 -19 -70 -9 -33 -19 -67 -22 -75 -3 -8 -7 -22 -9 -30 -2 -8 -19 -69 -39
-135 -20 -66 -38 -127 -40 -135 -2 -8 -8 -30 -14 -47 -5 -18 -8 -33 -5 -33 2
0 -2 -13 -11 -30 -8 -16 -15 -32 -15 -35 1 -3 -2 -22 -6 -42 -7 -36 -7 -36
-16 -13 -6 14 -11 30 -12 35 -1 6 -24 75 -50 155 -139 428 -239 735 -237 735
1 0 -3 14 -9 30 -7 17 -13 37 -15 45 -2 8 -13 40 -24 70 -19 53 -152 464 -157
485 -2 6 -24 73 -49 150 -26 77 -48 145 -49 150 -4 18 -108 339 -116 360 -5
11 -17 47 -26 80 -10 33 -24 67 -31 76 -7 8 -13 27 -13 40 0 14 -4 29 -8 35
-8 8 -35 87 -36 106 -1 3 -4 10 -8 14 -5 4 -8 17 -8 29 0 12 -3 25 -7 29 -4 3
-8 12 -9 19 -1 7 -23 75 -49 152 -26 77 -48 145 -49 150 -1 6 -33 102 -70 215
-37 113 -69 210 -70 215 -1 6 -28 89 -60 185 -32 96 -59 180 -60 185 -1 6 -40
125 -86 265 -113 347 -190 585 -251 775 -29 88 -54 167 -57 175 -3 8 -6 17 -7
20 0 3 -20 64 -44 135 l-43 131 -625 0 c-434 0 -626 -3 -628 -10z m614 -918
c26 -89 93 -315 96 -328 4 -14 120 -410 166 -565 12 -38 25 -81 30 -95 5 -14
11 -34 13 -45 2 -11 18 -67 35 -124 17 -57 33 -114 35 -125 2 -12 8 -32 14
-46 8 -20 31 -96 37 -120 6 -26 38 -130 45 -146 7 -18 5 -23 -13 -25 -12 -2
-236 -4 -497 -3 -407 0 -475 2 -474 15 0 15 21 95 31 119 3 8 8 24 10 35 2 11
15 56 28 100 14 44 45 152 71 240 25 88 56 196 69 240 13 44 35 118 49 165 13
47 35 119 47 160 12 41 23 80 23 85 1 6 10 37 20 70 11 33 20 65 22 70 1 6 10
37 19 70 10 33 17 60 16 60 -1 0 7 26 18 58 11 31 18 57 15 57 -3 0 -2 6 3 13
4 6 8 14 9 17 3 17 17 66 21 73 10 18 33 4 42 -25z"/>
<path d="M2788 1192 l-47 -3 0 -479 0 -479 2554 0 2555 0 0 480 0 479 -22 0
c-129 3 -5005 4 -5040 2z"/>
</g>
</svg>
