<?xml version="1.0" encoding="utf-8"?>
<!-- Generator: Adobe Illustrator 20.0.0, SVG Export Plug-In . SVG Version: 6.00 Build 0)  -->
<svg version="1.1" id="Layer_1" xmlns:sketch="http://www.bohemiancoding.com/sketch/ns"
	 xmlns="http://www.w3.org/2000/svg" xmlns:xlink="http://www.w3.org/1999/xlink" x="0px" y="0px" viewBox="0 0 22 22"
	 style="enable-background:new 0 0 22 22;" xml:space="preserve">
<style type="text/css">
	.st0{fill:#34495E;}
</style>
<title></title>
<g id="miu">
	<g id="circle_arrow-down_download_outline_stroke">
		<g>
			<path id="path-1" class="st0" d="M0,11C0,4.9,4.9,0,11,0s11,4.9,11,11s-4.9,11-11,11S0,17.1,0,11L0,11z M21,11
				c0-5.5-4.5-10-10-10S1,5.5,1,11s4.5,10,10,10S21,16.5,21,11L21,11z M11,16.5l4-3v-1l-3.5,2.8l0-9.8h-1v9.8L7,12.5v1L11,16.5
				L11,16.5z"/>
		</g>
		<g>
			<path id="path-1_1_" class="st0" d="M0,11C0,4.9,4.9,0,11,0s11,4.9,11,11s-4.9,11-11,11S0,17.1,0,11L0,11z M21,11
				c0-5.5-4.5-10-10-10S1,5.5,1,11s4.5,10,10,10S21,16.5,21,11L21,11z M11,16.5l4-3v-1l-3.5,2.8l0-9.8h-1v9.8L7,12.5v1L11,16.5
				L11,16.5z"/>
		</g>
	</g>
</g>
</svg>
