<?xml version="1.0" encoding="UTF-8"?>
<svg width="20px" height="33px" viewBox="0 0 20 33" version="1.1" xmlns="http://www.w3.org/2000/svg" xmlns:xlink="http://www.w3.org/1999/xlink">
    <!-- Generator: Sketch 51.1 (57501) - http://www.bohemiancoding.com/sketch -->
    <title>Group 3</title>
    <desc>Created with Sketch.</desc>
    <defs></defs>
    <g id="design-2" stroke="none" stroke-width="1" fill="none" fill-rule="evenodd">
        <g id="Macbookpro" transform="translate(-686.000000, -64.000000)">
            <g id="Group-3" transform="translate(672.000000, 56.000000)">
                <path d="M25.6384728,17.1999512 L25.6563798,17.1999512 L28.074484,24.6565959 L30.2049539,17.1999512 L33.2717784,17.1999512 L29.0758179,29.7878327 C28.7988554,30.6325682 28.4076518,31.2557244 27.9021952,31.65732 C27.3967387,32.0589156 26.6731851,32.2597104 25.7315127,32.2597104 L23.8204812,32.2597104 L23.8204812,29.9827707 C24.5260131,29.9259893 24.8787791,29.8904902 24.8787791,29.8762732 C25.1577011,29.8762732 26.4178453,29.0947983 25.9440141,27.8523007 C25.9395929,27.8407073 25.3759567,26.1228951 24.2531055,22.6988642 L24.2337777,22.6988642 L23.1062083,19.2506986 L18.2663133,19.2506986 L17.2277092,22.6988642 L14.0288086,22.6988642 L18.8063874,8.19995117 L22.7115387,8.19995117 L25.6384728,17.1999512 Z M20.6857383,11 L20.5882383,11 L19.0867383,16.1675 L22.2067383,16.1675 L20.6857383,11 Z" id="Combined-Shape" fill="#262223" fill-rule="nonzero"></path>
                <rect id="Rectangle-14" fill="#262223" x="16.0649414" y="37.2753906" width="15.9631348" height="3"></rect>
                <rect id="Rectangle" fill-rule="nonzero" x="0" y="0" width="48" height="48"></rect>
            </g>
        </g>
    </g>
</svg>